Coordinates
version=1
nRows=9
nColumns=24
inDegrees=yes

Units are S.I. units (second, meters, Newtons, ...)
Angles are in degrees.

endheader
time	pelvis_tilt	pelvis_list	pelvis_rotation	pelvis_tx	pelvis_ty	pelvis_tz	hip_flexion_r	hip_adduction_r	hip_rotation_r	knee_angle_r	ankle_angle_r	subtalar_angle_r	mtp_angle_r	hip_flexion_l	hip_adduction_l	hip_rotation_l	knee_angle_l	ankle_angle_l	subtalar_angle_l	mtp_angle_l	lumbar_extension	lumbar_bending	lumbar_rotation
      4.69000000	     -9.17680464	     -2.96565840	     -5.03264264	     -1.25184539	     -0.00485560	     -0.70055047	      1.68483527	      5.84020294	     -5.40842567	     -4.11425817	      4.84186260	     -2.72095415	     10.03152555	     34.94157183	     -8.55552683	    -19.00653865	    -47.42247790	     -2.18915610	    -13.87664747	      3.64278469	      7.35273851	      5.90588430	      1.77015311
      4.69500000	     -9.33535071	     -2.89992727	     -5.14867988	     -1.24624789	     -0.00563688	     -0.70048003	      1.49320194	      5.76621253	     -5.32856388	     -4.12967345	      5.13703084	     -2.68819180	     10.00005874	     35.22578206	     -8.45936085	    -19.39604934	    -45.68059171	     -1.79866770	    -13.66129957	      3.04298248	      7.46102484	      5.83007638	      1.97149621
      4.70000000	     -9.53120064	     -2.89190765	     -5.14798928	     -1.24063774	     -0.00654077	     -0.70054712	      1.32933341	      5.75703498	     -5.34853296	     -4.12897480	      5.38929247	     -2.76695870	      9.99869113	     35.55913836	     -8.33578998	    -19.60666133	    -43.88043912	     -1.53681297	    -13.42529909	      2.89485963	      7.61746143	      5.78475636	      1.98938571
      4.70500000	     -9.69490473	     -2.83838970	     -5.29711078	     -1.23499930	     -0.00741213	     -0.70048691	      1.15674901	      5.69230100	     -5.24893730	     -4.18106320	      5.72802877	     -2.68894293	      9.97565446	     35.77174689	     -8.26983137	    -20.07409500	    -42.00868202	     -1.17935205	    -13.06228509	      2.52499240	      7.73347087	      5.72857370	      2.25811967
      4.71000000	     -9.83671072	     -2.80437143	     -5.37770172	     -1.22937717	     -0.00824215	     -0.70053610	      0.96070990	      5.64343997	     -5.26611714	     -4.22830156	      5.98445847	     -2.62995242	      9.89166646	     35.94323767	     -8.16695059	    -20.46213098	    -40.08193200	     -0.83019905	    -12.50417632	      2.08016689	      7.81382028	      5.68028407	      2.42017670
      4.71500000	    -10.03017495	     -2.79410938	     -5.42304013	     -1.22366880	     -0.00921201	     -0.70065968	      0.79784198	      5.62119117	     -5.27348374	     -4.25042453	      6.26669857	     -2.60315257	      9.85247464	     36.14660392	     -8.05137542	    -20.78876208	    -38.10186142	     -0.54178026	    -11.92358256	      1.92364466	      7.96831063	      5.65301271	      2.52518717
      4.72000000	    -10.24706291	     -2.79099981	     -5.41038582	     -1.21795889	     -0.01023329	     -0.70085590	      0.66138764	      5.60745946	     -5.32263352	     -4.27620220	      6.52610921	     -2.64095298	      9.83941150	     36.35823874	     -7.89031748	    -21.02795723	    -36.06732267	     -0.35855729	    -11.28771041	      1.91687008	      8.15290519	      5.61342867	      2.54109977
      4.72500000	    -10.38818968	     -2.78487630	     -5.51247981	     -1.21219525	     -0.01115003	     -0.70093797	      0.44686114	      5.58097240	     -5.36589839	     -4.31333508	      6.78877785	     -2.47449296	      9.79363833	     36.41473725	     -7.81979270	    -21.49558626	    -34.00002888	     -0.05786273	    -10.34457912	      2.07012570	      8.24435477	      5.59642448	      2.73900110
      4.73000000	    -10.51716379	     -2.78067467	     -5.55721210	     -1.20643670	     -0.01208929	     -0.70108369	      0.22475830	      5.55449220	     -5.46760401	     -4.36523322	      7.06389334	     -2.35082772	      9.73330086	     36.44708594	     -7.69284671	    -21.84770500	    -31.90069922	      0.14985005	     -9.34635514	      2.39693630	      8.32343499	      5.55730391	      2.87617505
